<?xml version="1.0" encoding="utf-8"?>
<!-- Generator: Adobe Illustrator 24.3.0, SVG Export Plug-In . SVG Version: 6.00 Build 0)  -->
<svg version="1.1" id="Capa_1" xmlns="http://www.w3.org/2000/svg" xmlns:xlink="http://www.w3.org/1999/xlink" x="0px" y="0px"
	 viewBox="0 0 24 24" style="enable-background:new 0 0 24 24;" xml:space="preserve">
<style type="text/css">
	.st0{fill:none;}
	.st1{fill:#2D2D2B;}
</style>
<g>
	<path class="st0" d="M0,0h24v24H0V0z"/>
</g>
<g>
	<path class="st1" d="M21,10.8V8c0-1.7-1.4-3-3-3h-4c-0.8,0-1.5,0.3-2,0.8C11.5,5.3,10.8,5,10,5H6C4.3,5,3,6.3,3,8v2.8
		c-0.6,0.6-1,1.3-1,2.2v6h2v-2h16v2h2v-6C22,12.1,21.6,11.3,21,10.8z M14,7h4c0.5,0,1,0.4,1,1v2h-6V8C13,7.4,13.4,7,14,7z M5,8
		c0-0.6,0.4-1,1-1h4c0.6,0,1,0.4,1,1v2H5V8z M4,15v-2c0-0.6,0.4-1,1-1h14c0.5,0,1,0.4,1,1v2H4z"/>
</g>
</svg>
