<?xml version="1.0" encoding="utf-8"?>
<!-- Generator: Adobe Illustrator 24.3.0, SVG Export Plug-In . SVG Version: 6.00 Build 0)  -->
<svg version="1.1" id="Capa_1" xmlns="http://www.w3.org/2000/svg" xmlns:xlink="http://www.w3.org/1999/xlink" x="0px" y="0px"
	 viewBox="0 0 24 24" style="enable-background:new 0 0 24 24;" xml:space="preserve">
<style type="text/css">
	.st0{fill:none;}
	.st1{fill:#2D2D2B;}
</style>
<path class="st0" d="M0,0h24v24H0V0z"/>
<path class="st1" d="M10,8l-3.2,3.2c0.3,0.1,0.6,0.3,0.8,0.4C7.9,11.9,8.1,12,8.7,12s0.8-0.1,1.1-0.4c0.5-0.3,1.1-0.6,2.2-0.6
	s1.7,0.4,2.2,0.6c0.4,0.2,0.6,0.4,1.1,0.4c0.6,0,0.8-0.1,1.1-0.4c0.1-0.1,0.3-0.1,0.4-0.2L10.5,5C8.9,3.5,7.5,3,5,3v2.5
	c1.8,0,2.9,0.4,4,1.5L10,8z M22,16.5L22,16.5L22,16.5z M5.4,15.5c0.6,0,0.8,0.1,1.2,0.4s1.1,0.6,2.2,0.6s1.7-0.4,2.2-0.6
	c0.4-0.2,0.6-0.4,1.1-0.4c0.6,0,0.8,0.1,1.1,0.4c0.4,0.3,1.1,0.6,2.2,0.6s1.7-0.4,2.2-0.6c0.4-0.2,0.6-0.4,1.1-0.4s0.8,0.1,1.1,0.4
	c0.5,0.3,1.1,0.6,2.2,0.6v-2c-0.5,0-0.8-0.1-1.1-0.4c-0.5-0.3-1.1-0.6-2.2-0.6s-1.7,0.4-2.2,0.6c-0.4,0.2-0.6,0.4-1.1,0.4
	s-0.8-0.1-1.1-0.4c-0.4-0.3-1.1-0.6-2.2-0.6s-1.7,0.4-2.2,0.6c-0.4,0.2-0.6,0.4-1.1,0.4c-0.6,0-0.8-0.1-1.2-0.4
	c-0.4-0.3-1.1-0.6-2.2-0.6s-1.7,0.4-2.2,0.6c-0.4,0.2-0.6,0.4-1.1,0.4v2c1.1,0,1.7-0.4,2.2-0.6C4.6,15.6,4.8,15.5,5.4,15.5z
	 M18.7,18c-1.1,0-1.7,0.4-2.2,0.6c-0.4,0.2-0.6,0.4-1.1,0.4c-0.6,0-0.8-0.1-1.1-0.4C13.7,18.4,13.1,18,12,18s-1.7,0.4-2.2,0.6
	C9.4,18.9,9.2,19,8.7,19s-0.8-0.1-1.2-0.4C7.1,18.4,6.4,18,5.3,18s-1.7,0.4-2.2,0.6C2.8,18.9,2.6,19,2,19v2c1.1,0,1.7-0.4,2.2-0.6
	C4.6,20.1,4.8,20,5.3,20s0.8,0.1,1.2,0.4C6.9,20.6,7.6,21,8.7,21s1.7-0.4,2.2-0.6c0.4-0.2,0.6-0.4,1.1-0.4c0.6,0,0.8,0.1,1.1,0.4
	c0.4,0.3,1.1,0.6,2.2,0.6s1.7-0.4,2.2-0.6c0.4-0.2,0.6-0.4,1.1-0.4s0.8,0.1,1.1,0.4c0.5,0.3,1.1,0.6,2.2,0.6v-2
	c-0.6,0-0.8-0.1-1.1-0.4C20.4,18.4,19.8,18,18.7,18z"/>
<circle class="st1" cx="16.5" cy="5.5" r="2.5"/>
</svg>
