<?xml version="1.0" encoding="utf-8"?>
<!-- Generator: Adobe Illustrator 24.3.0, SVG Export Plug-In . SVG Version: 6.00 Build 0)  -->
<svg version="1.1" id="Capa_1" xmlns="http://www.w3.org/2000/svg" xmlns:xlink="http://www.w3.org/1999/xlink" x="0px" y="0px"
	 viewBox="0 0 24 24" style="enable-background:new 0 0 24 24;" xml:space="preserve">
<style type="text/css">
	.st0{fill:none;}
	.st1{fill:#2D2D2B;}
</style>
<path class="st0" d="M0,0h24v24H0V0z"/>
<path class="st1" d="M21,19.6L19.6,21l-6.4-6.4l1.4-1.4L21,19.6z M13.1,3C10.5,3,8,4,6,5.9l0,0C2,9.9,2,16.3,6,20.3L20.3,6
	C18.3,4,15.7,3,13.1,3z M6.1,17.3C5.4,16,5,14.6,5,13.1c0-0.9,0.2-1.8,0.5-2.7c0.2,1.9,0.9,3.8,2.1,5.4C7.5,15.9,6.1,17.3,6.1,17.3z
	 M9,14.4c-1.3-2.1-1.9-4.5-1.4-6.8c0.6-0.1,1.2-0.2,1.8-0.2c1.8,0,3.6,0.6,5.1,1.6C14.4,9,9,14.4,9,14.4z M10.4,5.5
	C11.3,5.2,12.2,5,13.1,5c1.5,0,2.9,0.4,4.2,1.1l-1.4,1.4C14.2,6.3,12.4,5.6,10.4,5.5z"/>
</svg>
