<?xml version="1.0" encoding="utf-8"?>
<!-- Generator: Adobe Illustrator 24.3.0, SVG Export Plug-In . SVG Version: 6.00 Build 0)  -->
<svg version="1.1" id="Capa_1" xmlns="http://www.w3.org/2000/svg" xmlns:xlink="http://www.w3.org/1999/xlink" x="0px" y="0px"
	 viewBox="0 0 24 24" style="enable-background:new 0 0 24 24;" xml:space="preserve">
<style type="text/css">
	.st0{fill:none;}
	.st1{fill:#2D2D2B;}
</style>
<path class="st0" d="M0,0h24v24H0V0z"/>
<path class="st1" d="M4,19h16v2H4V19z M20,3H4v10c0,2.2,1.8,4,4,4h6c2.2,0,4-1.8,4-4v-3h2c1.1,0,2-0.9,2-2V5C22,3.9,21.1,3,20,3z
	 M16,13c0,1.1-0.9,2-2,2H8c-1.1,0-2-0.9-2-2V5h10V13z M20,8h-2V5h2V8z"/>
</svg>
